<svg width="245" height="40" viewBox="0 0 245 40" fill="none" xmlns="http://www.w3.org/2000/svg">
<path d="M9.49067 30.336C7.79822 30.336 6.28 30.0373 4.936 29.44C3.592 28.8178 2.52178 27.984 1.72533 26.9387C0.953778 25.8933 0.530667 24.736 0.456 23.4667H5.72C5.81956 24.2631 6.20533 24.9227 6.87733 25.4453C7.57422 25.968 8.43289 26.2293 9.45333 26.2293C10.4489 26.2293 11.2204 26.0302 11.768 25.632C12.3404 25.2338 12.6267 24.7236 12.6267 24.1013C12.6267 23.4293 12.2782 22.9316 11.5813 22.608C10.9093 22.2596 9.82667 21.8862 8.33333 21.488C6.79022 21.1147 5.52089 20.7289 4.52533 20.3307C3.55467 19.9324 2.70844 19.3227 1.98667 18.5013C1.28978 17.68 0.941334 16.5724 0.941334 15.1787C0.941334 14.0338 1.26489 12.9884 1.912 12.0427C2.584 11.0969 3.52978 10.3502 4.74933 9.80266C5.99378 9.25511 7.44978 8.98133 9.11734 8.98133C11.5813 8.98133 13.5476 9.60355 15.016 10.848C16.4844 12.0676 17.2933 13.7227 17.4427 15.8133H12.44C12.3653 14.992 12.0169 14.3449 11.3947 13.872C10.7973 13.3742 9.98845 13.1253 8.968 13.1253C8.02222 13.1253 7.288 13.2996 6.76533 13.648C6.26756 13.9964 6.01867 14.4818 6.01867 15.104C6.01867 15.8009 6.36711 16.336 7.064 16.7093C7.76089 17.0578 8.84356 17.4187 10.312 17.792C11.8053 18.1653 13.0373 18.5511 14.008 18.9493C14.9787 19.3476 15.8124 19.9698 16.5093 20.816C17.2311 21.6373 17.6044 22.7324 17.6293 24.1013C17.6293 25.296 17.2933 26.3662 16.6213 27.312C15.9742 28.2578 15.0284 29.0044 13.784 29.552C12.5644 30.0747 11.1333 30.336 9.49067 30.336ZM42.5651 9.31733V30H37.3011V27.3867C36.6291 28.2827 35.7455 28.992 34.6504 29.5147C33.5802 30.0124 32.4104 30.2613 31.1411 30.2613C29.5233 30.2613 28.0922 29.9253 26.8478 29.2533C25.6033 28.5564 24.6202 27.5484 23.8984 26.2293C23.2015 24.8853 22.8531 23.2924 22.8531 21.4507V9.31733H28.0798V20.704C28.0798 22.3467 28.4904 23.616 29.3118 24.512C30.1331 25.3831 31.2531 25.8187 32.6718 25.8187C34.1153 25.8187 35.2478 25.3831 36.0691 24.512C36.8904 23.616 37.3011 22.3467 37.3011 20.704V9.31733H42.5651ZM51.4927 6.85333C50.5469 6.85333 49.7629 6.56711 49.1407 5.99466C48.5434 5.39733 48.2447 4.66311 48.2447 3.792C48.2447 2.92089 48.5434 2.19911 49.1407 1.62666C49.7629 1.02933 50.5469 0.730663 51.4927 0.730663C52.4136 0.730663 53.1727 1.02933 53.77 1.62666C54.3674 2.19911 54.666 2.92089 54.666 3.792C54.666 4.66311 54.3674 5.39733 53.77 5.99466C53.1727 6.56711 52.4136 6.85333 51.4927 6.85333ZM54.0687 33.3973C54.0687 35.6871 53.4963 37.3298 52.3514 38.3253C51.2314 39.3458 49.6136 39.856 47.498 39.856H45.1834V35.4133H46.6767C47.4732 35.4133 48.0332 35.2516 48.3567 34.928C48.6803 34.6293 48.842 34.1316 48.842 33.4347V9.31733H54.0687V33.3973ZM59.0087 19.584C59.0087 17.4933 59.4193 15.6391 60.2407 14.0213C61.0869 12.4036 62.2193 11.1591 63.638 10.288C65.0816 9.41689 66.6869 8.98133 68.454 8.98133C69.9971 8.98133 71.3411 9.29244 72.486 9.91466C73.6558 10.5369 74.5891 11.3209 75.286 12.2667V9.31733H80.55V30H75.286V26.976C74.614 27.9467 73.6807 28.7556 72.486 29.4027C71.3162 30.0249 69.9598 30.336 68.4167 30.336C66.6745 30.336 65.0816 29.888 63.638 28.992C62.2193 28.096 61.0869 26.8391 60.2407 25.2213C59.4193 23.5787 59.0087 21.6996 59.0087 19.584ZM75.286 19.6587C75.286 18.3893 75.0371 17.3067 74.5393 16.4107C74.0416 15.4898 73.3696 14.7929 72.5233 14.32C71.6771 13.8222 70.7687 13.5733 69.798 13.5733C68.8273 13.5733 67.9313 13.8098 67.11 14.2827C66.2887 14.7556 65.6167 15.4524 65.094 16.3733C64.5962 17.2693 64.3473 18.3396 64.3473 19.584C64.3473 20.8284 64.5962 21.9236 65.094 22.8693C65.6167 23.7902 66.2887 24.4996 67.11 24.9973C67.9562 25.4951 68.8522 25.744 69.798 25.744C70.7687 25.744 71.6771 25.5076 72.5233 25.0347C73.3696 24.5369 74.0416 23.84 74.5393 22.944C75.0371 22.0231 75.286 20.928 75.286 19.6587ZM106.561 9.31733L93.7561 39.7813H88.1934L92.6734 29.4773L84.3854 9.31733H90.2468L95.5854 23.7653L100.999 9.31733H106.561ZM129.502 12.0053C129.502 13.3991 129.166 14.7058 128.494 15.9253C127.846 17.1449 126.814 18.128 125.395 18.8747C124.001 19.6213 122.234 19.9947 120.094 19.9947H115.726V30H110.499V3.94133H120.094C122.11 3.94133 123.827 4.28978 125.246 4.98666C126.664 5.68355 127.722 6.64178 128.419 7.86133C129.141 9.08089 129.502 10.4622 129.502 12.0053ZM119.87 15.776C121.313 15.776 122.383 15.4524 123.08 14.8053C123.777 14.1333 124.126 13.2 124.126 12.0053C124.126 9.46666 122.707 8.19733 119.87 8.19733H115.726V15.776H119.87ZM132.988 19.584C132.988 17.4933 133.399 15.6391 134.22 14.0213C135.067 12.4036 136.199 11.1591 137.618 10.288C139.061 9.41689 140.667 8.98133 142.434 8.98133C143.977 8.98133 145.321 9.29244 146.466 9.91466C147.636 10.5369 148.569 11.3209 149.266 12.2667V9.31733H154.53V30H149.266V26.976C148.594 27.9467 147.66 28.7556 146.466 29.4027C145.296 30.0249 143.94 30.336 142.396 30.336C140.654 30.336 139.061 29.888 137.618 28.992C136.199 28.096 135.067 26.8391 134.22 25.2213C133.399 23.5787 132.988 21.6996 132.988 19.584ZM149.266 19.6587C149.266 18.3893 149.017 17.3067 148.519 16.4107C148.021 15.4898 147.349 14.7929 146.503 14.32C145.657 13.8222 144.748 13.5733 143.778 13.5733C142.807 13.5733 141.911 13.8098 141.09 14.2827C140.268 14.7556 139.596 15.4524 139.074 16.3733C138.576 17.2693 138.327 18.3396 138.327 19.584C138.327 20.8284 138.576 21.9236 139.074 22.8693C139.596 23.7902 140.268 24.4996 141.09 24.9973C141.936 25.4951 142.832 25.744 143.778 25.744C144.748 25.744 145.657 25.5076 146.503 25.0347C147.349 24.5369 148.021 23.84 148.519 22.944C149.017 22.0231 149.266 20.928 149.266 19.6587ZM165.981 12.528C166.653 11.4329 167.524 10.5742 168.595 9.952C169.69 9.32978 170.934 9.01866 172.328 9.01866V14.5067H170.947C169.304 14.5067 168.059 14.8924 167.213 15.664C166.392 16.4356 165.981 17.7796 165.981 19.696V30H160.755V9.31733H165.981V12.528ZM189.214 30L182.195 21.1893V30H176.968V2.37333H182.195V18.0907L189.139 9.31733H195.934L186.824 19.696L196.008 30H189.214ZM211.538 9.01866C213.106 9.01866 214.5 9.36711 215.72 10.064C216.939 10.736 217.885 11.744 218.557 13.088C219.254 14.4071 219.602 16 219.602 17.8667V30H214.376V18.576C214.376 16.9333 213.965 15.6764 213.144 14.8053C212.322 13.9093 211.202 13.4613 209.784 13.4613C208.34 13.4613 207.195 13.9093 206.349 14.8053C205.528 15.6764 205.117 16.9333 205.117 18.576V30H199.89V2.37333H205.117V11.8933C205.789 10.9973 206.685 10.3004 207.805 9.80266C208.925 9.28 210.17 9.01866 211.538 9.01866ZM244.919 19.2107C244.919 19.9573 244.87 20.6293 244.77 21.2267H229.65C229.774 22.72 230.297 23.8898 231.218 24.736C232.139 25.5822 233.271 26.0053 234.615 26.0053C236.557 26.0053 237.938 25.1716 238.759 23.504H244.397C243.799 25.4951 242.654 27.1378 240.962 28.432C239.27 29.7013 237.191 30.336 234.727 30.336C232.736 30.336 230.944 29.9004 229.351 29.0293C227.783 28.1333 226.551 26.8764 225.655 25.2587C224.784 23.6409 224.349 21.7742 224.349 19.6587C224.349 17.5182 224.784 15.6391 225.655 14.0213C226.526 12.4036 227.746 11.1591 229.314 10.288C230.882 9.41689 232.686 8.98133 234.727 8.98133C236.694 8.98133 238.448 9.40444 239.991 10.2507C241.559 11.0969 242.766 12.304 243.613 13.872C244.484 15.4151 244.919 17.1947 244.919 19.2107ZM239.506 17.7173C239.481 16.3733 238.996 15.3031 238.05 14.5067C237.104 13.6853 235.947 13.2747 234.578 13.2747C233.284 13.2747 232.189 13.6729 231.293 14.4693C230.422 15.2409 229.886 16.3236 229.687 17.7173H239.506Z" fill="white"/>
</svg>
