<svg width="152" height="46" viewBox="0 0 152 46" fill="none" xmlns="http://www.w3.org/2000/svg">
<path d="M18.892 21.7514L14.4389 22.2372C14.313 21.7874 14.0926 21.3646 13.7777 20.9688C13.4718 20.5729 13.058 20.2536 12.5362 20.0107C12.0144 19.7678 11.3757 19.6463 10.62 19.6463C9.60346 19.6463 8.74882 19.8667 8.05611 20.3075C7.3724 20.7483 7.03504 21.3196 7.04403 22.0213C7.03504 22.6241 7.25545 23.1143 7.70526 23.4922C8.16406 23.87 8.91974 24.1804 9.9723 24.4233L13.5078 25.179C15.469 25.6018 16.9264 26.272 17.88 27.1896C18.8426 28.1072 19.3284 29.3082 19.3374 30.7926C19.3284 32.0971 18.946 33.2486 18.1903 34.2472C17.4437 35.2367 16.4046 36.0104 15.0732 36.5682C13.7417 37.1259 12.2124 37.4048 10.4851 37.4048C7.94815 37.4048 5.90601 36.8741 4.35867 35.8125C2.81132 34.742 1.8892 33.2531 1.59233 31.3459L6.35582 30.8871C6.57173 31.8227 7.03054 32.5289 7.73224 33.0057C8.43395 33.4825 9.34706 33.7209 10.4716 33.7209C11.6321 33.7209 12.5632 33.4825 13.2649 33.0057C13.9756 32.5289 14.331 31.9396 14.331 31.2379C14.331 30.6442 14.1016 30.1539 13.6428 29.767C13.1929 29.3802 12.4912 29.0833 11.5376 28.8764L8.00213 28.1342C6.01397 27.7204 4.54309 27.0232 3.58949 26.0426C2.63589 25.053 2.16359 23.8026 2.17259 22.2912C2.16359 21.0137 2.50994 19.9072 3.21165 18.9716C3.92235 18.027 4.90743 17.2983 6.1669 16.7855C7.43537 16.2637 8.89725 16.0028 10.5526 16.0028C12.9815 16.0028 14.8932 16.5201 16.2876 17.5547C17.6911 18.5893 18.5592 19.9882 18.892 21.7514ZM23.9613 37V9.36364H34.325C36.4481 9.36364 38.2293 9.75947 39.6687 10.5511C41.1171 11.3428 42.2101 12.4313 42.9478 13.8168C43.6945 15.1932 44.0679 16.7585 44.0679 18.5128C44.0679 20.285 43.6945 21.8594 42.9478 23.2358C42.2011 24.6122 41.0991 25.6963 39.6417 26.4879C38.1843 27.2706 36.3896 27.6619 34.2575 27.6619H27.3889V23.5462H33.5828C34.8242 23.5462 35.8408 23.3303 36.6325 22.8984C37.4242 22.4666 38.0089 21.8729 38.3867 21.1172C38.7736 20.3615 38.967 19.4934 38.967 18.5128C38.967 17.5322 38.7736 16.6686 38.3867 15.9219C38.0089 15.1752 37.4197 14.5949 36.619 14.1811C35.8273 13.7583 34.8063 13.5469 33.5558 13.5469H28.9677V37H23.9613ZM54.1739 37.4183C52.8604 37.4183 51.6774 37.1844 50.6249 36.7166C49.5813 36.2398 48.7537 35.5381 48.1419 34.6115C47.5392 33.6849 47.2378 32.5424 47.2378 31.1839C47.2378 30.0144 47.4537 29.0473 47.8855 28.2827C48.3173 27.518 48.9066 26.9062 49.6533 26.4474C50.4 25.9886 51.2411 25.6423 52.1767 25.4084C53.1213 25.1655 54.0974 24.9901 55.105 24.8821C56.3195 24.7562 57.3046 24.6437 58.0602 24.5447C58.8159 24.4368 59.3647 24.2749 59.7066 24.0589C60.0574 23.834 60.2328 23.4877 60.2328 23.0199V22.9389C60.2328 21.9223 59.9315 21.1352 59.3287 20.5774C58.726 20.0196 57.8578 19.7408 56.7243 19.7408C55.5278 19.7408 54.5787 20.0017 53.877 20.5234C53.1843 21.0452 52.7165 21.6615 52.4736 22.3722L47.9125 21.7244C48.2724 20.465 48.8661 19.4124 49.6938 18.5668C50.5214 17.7121 51.5335 17.0734 52.73 16.6506C53.9265 16.2188 55.2489 16.0028 56.6973 16.0028C57.6959 16.0028 58.69 16.1198 59.6796 16.3537C60.6691 16.5876 61.5733 16.9744 62.3919 17.5142C63.2106 18.045 63.8673 18.7692 64.3621 19.6868C64.8659 20.6044 65.1178 21.7514 65.1178 23.1278V37H60.4218V34.1527H60.2598C59.9629 34.7285 59.5446 35.2682 59.0048 35.772C58.4741 36.2668 57.8039 36.6671 56.9942 36.973C56.1935 37.2699 55.2534 37.4183 54.1739 37.4183ZM55.4423 33.8288C56.4229 33.8288 57.2731 33.6354 57.9928 33.2486C58.7125 32.8527 59.2657 32.331 59.6526 31.6832C60.0484 31.0355 60.2463 30.3293 60.2463 29.5646V27.1222C60.0934 27.2481 59.8325 27.3651 59.4637 27.473C59.1038 27.581 58.699 27.6754 58.2492 27.7564C57.7994 27.8374 57.354 27.9093 56.9132 27.9723C56.4724 28.0353 56.0901 28.0893 55.7662 28.1342C55.0375 28.2332 54.3853 28.3951 53.8095 28.62C53.2338 28.8449 52.7795 29.1598 52.4466 29.5646C52.1138 29.9605 51.9473 30.4732 51.9473 31.103C51.9473 32.0026 52.2757 32.6818 52.9324 33.1406C53.5891 33.5994 54.4258 33.8288 55.4423 33.8288ZM70.4097 37V16.2727H75.1462V19.7273H75.3621C75.74 18.5308 76.3877 17.6087 77.3053 16.9609C78.2319 16.3042 79.289 15.9759 80.4765 15.9759C80.7464 15.9759 81.0477 15.9893 81.3806 16.0163C81.7224 16.0343 82.0058 16.0658 82.2307 16.1108V20.6044C82.0238 20.5324 81.6955 20.4695 81.2456 20.4155C80.8048 20.3525 80.3775 20.321 79.9637 20.321C79.0731 20.321 78.2724 20.5144 77.5617 20.9013C76.86 21.2791 76.3067 21.8054 75.9019 22.4801C75.4971 23.1548 75.2947 23.933 75.2947 24.8146V37H70.4097ZM90.3092 30.4957L90.2957 24.5987H91.0784L98.5273 16.2727H104.235L95.0727 26.4744H94.0607L90.3092 30.4957ZM85.8561 37V9.36364H90.7411V37H85.8561ZM98.8646 37L92.1175 27.5675L95.4101 24.1264L104.708 37H98.8646ZM112.756 24.8551V37H107.871V9.36364H112.648V19.7947H112.891C113.377 18.6252 114.128 17.7031 115.144 17.0284C116.17 16.3447 117.474 16.0028 119.058 16.0028C120.497 16.0028 121.752 16.3042 122.823 16.907C123.893 17.5097 124.721 18.3913 125.306 19.5518C125.899 20.7124 126.196 22.1293 126.196 23.8026V37H121.311V24.5582C121.311 23.1638 120.951 22.0798 120.232 21.3061C119.521 20.5234 118.522 20.1321 117.236 20.1321C116.372 20.1321 115.599 20.321 114.915 20.6989C114.24 21.0677 113.709 21.603 113.323 22.3047C112.945 23.0064 112.756 23.8565 112.756 24.8551ZM140.732 37.4048C138.654 37.4048 136.859 36.973 135.347 36.1094C133.845 35.2367 132.689 34.0043 131.879 32.4119C131.07 30.8106 130.665 28.9259 130.665 26.7578C130.665 24.6257 131.07 22.7545 131.879 21.1442C132.698 19.5249 133.841 18.2654 135.307 17.3658C136.773 16.4571 138.496 16.0028 140.475 16.0028C141.753 16.0028 142.958 16.2098 144.092 16.6236C145.234 17.0284 146.242 17.6581 147.115 18.5128C147.996 19.3674 148.689 20.456 149.193 21.7784C149.696 23.0919 149.948 24.6572 149.948 26.4744V27.9723H132.959V24.6797H145.266C145.257 23.7441 145.054 22.9119 144.659 22.1832C144.263 21.4455 143.709 20.8653 142.999 20.4425C142.297 20.0196 141.478 19.8082 140.543 19.8082C139.544 19.8082 138.667 20.0511 137.911 20.5369C137.156 21.0137 136.566 21.6435 136.144 22.4261C135.73 23.1998 135.518 24.05 135.509 24.9766V27.8509C135.509 29.0563 135.73 30.0909 136.171 30.9545C136.611 31.8092 137.228 32.4659 138.019 32.9247C138.811 33.3745 139.738 33.5994 140.799 33.5994C141.51 33.5994 142.153 33.5005 142.729 33.3026C143.305 33.0956 143.804 32.7943 144.227 32.3984C144.65 32.0026 144.969 31.5123 145.185 30.9276L149.746 31.4403C149.458 32.6458 148.909 33.6984 148.1 34.598C147.299 35.4886 146.273 36.1813 145.023 36.6761C143.772 37.1619 142.342 37.4048 140.732 37.4048Z" fill="url(#paint0_linear_916_7)"/>
<defs>
<linearGradient id="paint0_linear_916_7" x1="155.081" y1="46" x2="6.52875e-08" y2="46" gradientUnits="userSpaceOnUse">
<stop stop-color="#A756F7"/>
<stop offset="0.776546" stop-color="#D08B5B"/>
</linearGradient>
</defs>
</svg>
